<?xml version="1.0" encoding="UTF-8" standalone="no"?>

<svg width="95" height="125" xmlns="http://www.w3.org/2000/svg" xmlns:xlink="http://www.w3.org/1999/xlink">
 <defs>
  <linearGradient id="linearGradient3703">
   <stop stop-color="#e4bc98" offset="0" id="stop3705"/>
   <stop stop-color="#f6daaa" stop-opacity="0" offset="1" id="stop3707"/>
  </linearGradient>
  <linearGradient id="linearGradient3666">
   <stop stop-color="#363433" offset="0" id="stop3668"/>
   <stop stop-color="#363433" stop-opacity="0" offset="1" id="stop3670"/>
  </linearGradient>
  <linearGradient id="linearGradient3652">
   <stop stop-color="#ffffff" offset="0" id="stop3654"/>
   <stop stop-color="#ffffff" stop-opacity="0" offset="1" id="stop3656"/>
  </linearGradient>
  <linearGradient id="linearGradient3642">
   <stop stop-color="#f6daaa" offset="0" id="stop3644"/>
   <stop stop-color="#e4bc98" offset="1" id="stop3646"/>
  </linearGradient>
  <linearGradient xlink:href="#linearGradient3642" id="linearGradient3648" y2="0.938928" x2="0.098695" y1="0.78993" x1="0.214359"/>
  <linearGradient xlink:href="#linearGradient3666" id="linearGradient3672" y2="0.216444" x2="0.233001" y1="0.231275" x1="0.398698"/>
  <radialGradient gradientTransform="matrix(0.58653594,0.29353285,-1.1940084,2.3858619,93.617419,-112.22316)" gradientUnits="userSpaceOnUse" xlink:href="#linearGradient3703" id="radialGradient3711" fy="66.878647" fx="31.249113" r="9.789615" cy="66.878647" cx="31.249113"/>
  <radialGradient gradientTransform="matrix(1.5765759,0,0,1.5765759,-45.978021,-40.844055)" gradientUnits="userSpaceOnUse" xlink:href="#linearGradient3652" id="radialGradient3919" fy="69.120766" fx="79.978813" r="5.29661" cy="69.120766" cx="79.978813"/>
 </defs>
 <g>
  <title>background</title>
  <rect fill="none" id="canvas_background" height="402" width="582" y="-1" x="-1"/>
 </g>
 <g>
  <title>Layer 1</title>
  <path fill="#363433" fill-rule="nonzero" id="path3724" d="m34.9375,94.75c-22.3905,0 -24.33147,21.92107 -24.5,26.25l47.1875,0c0.09187,-5.02716 -0.7998,-26.25 -22.6875,-26.25z"/>
  <path fill="#f6daaa" fill-rule="nonzero" stroke="#363433" stroke-width="1.3" stroke-linecap="square" stroke-miterlimit="4" stroke-dashoffset="0" id="path3606" d="m74.74841,58.1303c0.20483,12.12976 -14.84358,-5.27591 -12.91049,-12.57945c1.27386,-1.25011 2.55721,-2.33632 4.75797,-2.47831c1.81085,0.16982 6.66383,8.11652 8.15252,15.05776z"/>
  <path fill="none" stroke="#6d6e6e" stroke-width="0.5" stroke-linecap="square" stroke-miterlimit="4" stroke-dashoffset="0" id="path3772" d="m42.7897,47.0984c8.40407,-21.50266 4.65092,-41.92225 -2.9253,-43.92934"/>
  <path fill="url(#linearGradient3648)" fill-rule="nonzero" stroke="#363433" stroke-width="1.3" stroke-linecap="square" stroke-miterlimit="4" stroke-dashoffset="0" id="path3610" d="m42.27357,46.70948c-12.01865,1.50366 -14.09724,11.97922 -13.07601,15.79052c3.37953,12.00565 4.96558,20.16235 5.07316,33.86106c2.04869,2.16869 7.75781,4.61889 11.28013,1.09657c-1.08005,-8.15419 5.71912,-10.48873 16.02224,-9.73252c12.25622,0.89956 28.07204,-2.00196 28.07204,-13.63877c-0.96547,-7.33324 -9.43194,-12.77123 -22.5768,-20.32575"/>
  <path fill="none" stroke="#6d6e6e" stroke-width="0.5" stroke-linecap="square" stroke-miterlimit="4" stroke-dashoffset="0" id="path3774" d="m45.50502,45.13214c-0.44856,-9.9526 22.13369,-28.29049 29.96215,-19.00724"/>
  <path fill="#f6daaa" fill-rule="nonzero" id="path3608" d="m37.20869,52.43644c12.43221,-15.31097 23.77944,-17.22818 32.1769,8.14354"/>
  <path fill="url(#radialGradient3919)" id="path3917" d="m77.1875,60.3125c-3.16571,1.19139 -5.40625,4.23013 -5.40625,7.8125c0,4.61186 3.70064,8.34375 8.3125,8.34375c3.78316,0 6.97468,-2.51971 8,-5.96875c-1.11342,-2.12732 -2.92816,-4.16211 -5.40625,-6.21875c-1.57493,-1.30708 -3.42947,-2.61519 -5.5,-3.96875z"/>
  <path fill="#363433" fill-rule="nonzero" stroke-width="0.5" id="path3660" d="m43.125,84.9375c-0.50127,0 -1.07976,0.91806 -0.1875,0.84375c4.50247,-0.37497 8.84544,-0.2821 12.59375,2.34375l0.34375,-0.0625l0.46875,-0.59375l0.10101,-0.15798c-4.10239,-2.61364 -8.62852,-2.84634 -13.31976,-2.37327z"/>
  <path fill="#ffffff" fill-rule="nonzero" stroke="url(#linearGradient3672)" stroke-width="0.75" stroke-linecap="square" stroke-miterlimit="4" stroke-dashoffset="0" id="path3664" d="m48.50123,66.24609c-0.90941,-0.90941 -6.10115,-17.07646 2.80895,-19.61584c5.70887,-1.62704 12.54666,10.92054 12.54666,16.15147c0,5.23093 -10.67631,7.73704 -15.35561,3.46437z"/>
  <path fill="#343231" id="path3674" d="m57.086191,54.095706a3.946284,5.619599 0 1 1 -7.892584,-1.480423a3.946284,5.619599 0 1 1 7.892584,1.480423z"/>
  <path fill="#ffffff" id="path3676" d="m53.894518,51.971913a1.093935,1.832152 0 1 1 -2.18787,-1.057158a1.093935,1.832152 0 1 1 2.18787,1.057158z"/>
  <path fill="#ffffff" id="path3678" d="m52.346494,56.612357a-0.620422,0.519077 0 1 1 1.240844,-0.419561a-0.620422,0.519077 0 1 1 -1.240844,0.419561z"/>
  <path fill="url(#radialGradient3711)" fill-rule="nonzero" stroke-width="0.75" id="path3680" d="m42.875,47.28125l-0.3125,0.03125c-0.55437,0.4743 -0.58559,0.2956 -0.53125,0.0625c-0.10627,0.01494 -0.20794,0.04613 -0.3125,0.0625c-0.10727,0.12235 -0.23167,0.25375 -0.40625,0.46875l-0.3125,0.375l-0.3125,0.125l0.3125,-0.375c0.25028,-0.30823 0.34061,-0.44524 0.375,-0.53125c-0.08386,0.01462 -0.16727,0.01571 -0.25,0.03125c-0.31082,0.20871 -0.57292,0.43266 -0.21875,0.0625c-4.93692,0.98924 -7.85,3.60896 -9.5,6.46875c-1.79758,3.11558 -2.0296,6.58607 -1.59375,8.25c0.0019,0.0073 -0.0019,0.02405 0,0.03125c3.3491,11.90194 4.95982,20.14511 5.09375,33.65625c0.93551,0.92986 2.68669,2.00812 4.59375,2.40625c1.25809,0.26265 2.52269,0.24158 3.6875,-0.21875c0.69523,-0.71024 1.18012,-1.7638 1.6875,-2.9375c0.18979,-3.03752 1.6676,-5.26313 4.125,-6.5625c0.01177,-0.0062 0.01944,-0.02506 0.03125,-0.03125l-6.15625,-41.375z"/>
  <path fill="#413f3e" id="path3776" d="m41.03292,2.942534a1.564799,1.564799 0 1 1 -3.129599,0a1.564799,1.564799 0 1 1 3.129599,0z"/>
  <path fill="#413f3e" id="path3778" d="m77.049869,26.181411a1.564799,1.564799 0 1 1 -3.129599,0a1.564799,1.564799 0 1 1 3.129599,0z"/>
  <path fill="#ffffff" id="path3848" d="m33.87537,95.28126c-11.57618,-0.31415 -19.04482,11.3854 -18.2099,11.80571c1.38697,0.30582 2.87114,-2.98591 8.693,-7.89252c2.63932,-2.22439 9.62232,-2.97599 9.52,-3.75697c-0.0018,-0.05349 -0.00006,-0.10397 -0.0031,-0.15622z"/>
  <path fill="#e67e71" fill-rule="nonzero" id="path3735" d="m33.96875,98.59375c-12.30493,5.40077 -16.01019,13.99935 -16.125,22.40625l38.46875,0c-0.0033,-6.52287 -0.38099,-15.15798 -9.8125,-21.90625c-2.23336,1.96545 -5.12015,2.2846 -7.53125,1.78125c-1.947,-0.40647 -3.6793,-1.25647 -5,-2.28125z"/>
  <path fill="#363433" fill-rule="nonzero" id="path3953" d="m69.39063,60.59375c-1.62614,-6.45473 -3.92993,-11.22015 -6.42188,-14.4375c-2.49195,-3.21735 -5.22022,-4.99518 -8.09375,-5.40625c-2.87353,-0.41107 -5.83506,0.52056 -8.84375,2.5c-3.00869,1.97944 -6.8092,6.28795 -8.82812,9.1875c3.33781,-3.31844 6.48148,-6.45037 9.35937,-8.34375c2.87789,-1.89338 5.62051,-2.71097 8.1875,-2.34375c2.56699,0.36722 5.0203,1.9195 7.40625,5c2.38595,3.0805 4.9899,7.59699 7.23438,13.84375z"/>
 </g>
</svg>