<svg width="900" height="400" xmlns="http://www.w3.org/2000/svg" preserveAspectRatio="xMidYMid meet">
 <metadata>Created by potrace 1.10, written by Peter Selinger 2001-2011</metadata>

 <g>
  <title>background</title>
  <rect fill="none" id="canvas_background" height="402" width="902" y="-1" x="-1"/>
 </g>
 <g>
  <title>Layer 1</title>
  <g id="svg_1" fill="#000000" transform="translate(0,399) scale(0.10000000149011612,-0.10000000149011612) ">
   <path fill="#30a8cb" id="svg_2" d="m4080,3903c0,-12 14,-42 30,-66c17,-25 30,-48 30,-52c0,-3 22,-52 49,-108c169,-353 221,-466 221,-482c0,-18 35,-27 86,-23l39,3l97,190c54,105 100,197 103,205c4,8 13,26 20,40c7,14 21,41 31,60c9,19 21,42 25,50c5,8 19,35 32,60c12,25 35,64 51,88c16,23 26,45 23,48c-3,3 -193,7 -421,7l-416,2l0,-22zm644,-114c8,-32 4,-45 -39,-125c-26,-49 -54,-102 -62,-119c-14,-30 -22,-45 -70,-137c-16,-30 -35,-50 -55,-59c-30,-12 -32,-11 -60,21c-15,19 -28,38 -28,42c0,4 -27,63 -59,130c-33,68 -69,153 -82,190c-34,103 -41,100 225,96l221,-3l9,-36z"/>
   <path fill="#30a8cb" id="svg_3" d="m834,2928c-6,-10 -10,-1908 -4,-1909c3,0 88,-1 189,-1l185,-1l-3,360l-3,360l39,39c21,21 51,55 66,75c37,49 65,56 79,21c19,-48 68,-146 104,-207c19,-33 38,-70 44,-82c5,-11 14,-24 19,-28c6,-3 11,-13 11,-22c0,-9 6,-24 14,-32c7,-9 29,-45 48,-81c20,-36 45,-81 56,-100c11,-19 30,-53 42,-75c12,-22 35,-62 50,-90c15,-27 38,-69 50,-92l22,-43l172,0c94,0 195,-3 224,-6c47,-6 52,-5 52,13c0,11 -15,40 -33,64c-18,24 -37,51 -40,59c-4,8 -16,29 -27,45c-11,17 -24,39 -29,50c-5,11 -21,37 -35,58c-14,21 -26,40 -26,44c0,3 -33,60 -73,127c-40,66 -76,128 -80,136c-4,8 -16,29 -27,45c-11,17 -24,41 -30,54c-6,13 -21,38 -33,55c-26,36 -43,64 -55,91c-15,32 -152,257 -173,284c-27,34 -24,44 24,93c44,46 100,108 338,373c79,88 176,193 216,234c92,93 94,106 12,97c-34,-3 -148,-6 -254,-6l-192,0l-114,-127c-63,-71 -118,-133 -124,-139c-5,-7 -35,-38 -65,-70c-70,-74 -167,-188 -204,-237c-15,-21 -36,-46 -47,-56c-20,-18 -20,-19 6,-25c14,-4 31,-3 38,1c40,24 129,98 152,126c15,17 73,81 129,142c276,299 272,296 395,293c45,-1 84,-4 86,-7c10,-17 -30,-90 -80,-144c-31,-34 -77,-86 -103,-115c-26,-30 -66,-75 -89,-100c-168,-187 -173,-194 -189,-248c-9,-33 -13,-67 -9,-86c10,-44 75,-175 113,-227c18,-24 32,-47 32,-51c0,-8 61,-112 78,-133c5,-7 23,-37 39,-67c16,-30 36,-66 44,-80c20,-33 129,-215 151,-255c32,-55 76,-150 79,-170c6,-37 -9,-45 -81,-45c-75,0 -120,12 -120,33c0,7 -13,26 -30,42c-16,16 -30,34 -30,41c0,7 -6,19 -12,26c-7,7 -33,51 -56,98c-24,47 -62,117 -85,155c-22,39 -57,100 -76,137c-65,121 -120,203 -165,247c-36,36 -51,43 -87,45c-37,2 -51,-4 -100,-40c-54,-41 -100,-99 -119,-149c-5,-13 -10,-140 -11,-282c-1,-285 -7,-320 -53,-342c-43,-20 -116,-4 -133,29c-10,20 -13,194 -12,819l1,794l21,33c21,32 26,34 77,34c83,0 87,-10 95,-259c4,-130 9,-173 24,-206c21,-48 36,-61 47,-43c10,16 23,590 13,601c-8,11 -359,15 -365,5z"/>
   <path fill="#30a8cb" id="svg_4" d="m2414,2928c-6,-10 -6,-1900 0,-1906c3,-2 87,-4 188,-4l183,0l1,383l1,384l84,3c103,4 126,-2 134,-31c8,-27 10,-33 84,-191c34,-70 61,-132 61,-136c0,-4 19,-45 43,-91c23,-46 65,-136 92,-199c27,-63 53,-118 58,-121c4,-3 63,-4 130,-1c67,2 152,0 190,-5c53,-8 70,-7 79,4c8,10 7,18 -4,31c-13,15 -138,265 -138,276c0,2 -22,51 -49,108c-99,208 -131,279 -131,287c0,4 -13,27 -30,49c-16,23 -30,48 -30,56c0,7 17,22 38,31c63,30 138,92 184,152c91,122 112,188 112,348c0,154 -23,228 -106,340c-62,85 -157,160 -240,191c-105,38 -166,43 -551,46c-209,2 -381,0 -383,-4zm764,-93c34,-4 65,-11 68,-16c3,-5 14,-9 25,-9c25,0 115,-45 153,-77c46,-38 131,-147 145,-184c7,-19 20,-51 29,-72c14,-33 14,-55 5,-156c-10,-111 -12,-122 -51,-187c-22,-38 -81,-111 -131,-161c-50,-51 -98,-107 -107,-124c-15,-30 -15,-36 2,-93c9,-34 21,-65 25,-71c4,-5 23,-48 42,-95c20,-47 60,-137 90,-200c105,-223 112,-245 81,-270c-23,-20 -97,-16 -135,6c-33,19 -78,98 -163,289c-13,28 -44,93 -69,145c-25,52 -55,116 -65,141c-26,61 -117,154 -161,162c-131,27 -231,-31 -251,-146c-4,-23 -8,-151 -9,-285c-3,-293 -6,-307 -77,-318c-65,-9 -96,4 -111,46c-16,49 -16,1569 0,1620c16,47 30,54 112,60c102,7 480,4 553,-5z"/>
   <path fill="#30a8cb" id="svg_5" d="m2835,2626c-113,-44 -126,-69 -128,-254c0,-78 4,-154 10,-177c13,-45 72,-105 102,-105c11,0 23,-5 26,-10c10,-16 309,-4 370,15c59,18 112,62 153,128c27,43 30,55 28,130c-1,64 -6,92 -24,127c-31,60 -91,108 -169,137c-56,20 -81,23 -201,22c-77,-1 -150,-6 -167,-13zm212,-76l151,0l44,-33c127,-97 117,-253 -23,-339c-21,-13 -64,-17 -229,-19l-204,-3l1,200c1,109 2,201 2,203c1,2 25,1 54,-3c28,-3 120,-6 204,-6z"/>
   <path fill="#30a8cb" id="svg_6" d="m3853,2927c-2,-4 -4,-435 -4,-958l1,-950l626,0c344,0 628,2 631,4c8,9 5,359 -3,366c-5,3 -202,4 -439,1c-236,-4 -433,-5 -437,-3c-3,2 -6,101 -5,221l2,217l30,-3c82,-7 682,-17 694,-11c22,10 23,379 1,379c-34,1 -648,-3 -685,-4l-40,-1l0,183l0,184l449,1l448,2l1,184c0,103 -4,186 -9,188c-21,7 -1256,7 -1261,0zm1105,-94c28,-5 37,-14 59,-58l26,-53l-28,-34c-15,-18 -39,-37 -54,-41c-14,-4 -158,-7 -320,-7c-192,0 -313,-3 -347,-11c-62,-14 -120,-58 -140,-105c-16,-39 -20,-268 -5,-307c13,-34 76,-93 109,-102c15,-4 146,-10 292,-14c240,-5 268,-8 294,-25c27,-19 28,-23 23,-75c-3,-30 -12,-61 -20,-68c-26,-26 -90,-33 -325,-33c-187,0 -240,-3 -270,-16c-46,-19 -92,-62 -92,-85c0,-10 -4,-21 -10,-24c-6,-4 -10,-74 -10,-177l0,-171l37,-48c20,-27 50,-54 67,-61c22,-9 128,-13 381,-15l350,-2l23,-26c30,-35 31,-116 2,-145c-17,-17 -34,-20 -112,-20c-51,-1 -275,-1 -498,-1l-405,-1l-22,27c-13,14 -23,31 -24,38c0,7 0,318 0,692c1,374 1,689 0,700c0,11 0,61 1,110c2,100 22,150 63,158c33,6 917,6 955,0z"/>
   <path fill="#30a8cb" id="svg_7" d="m5255,2929c-2,-3 -5,-88 -6,-190l-2,-184l269,-1l269,-1l1,-768l0,-769l183,0l183,0l2,769l1,769l262,-3c144,-1 266,0 270,2c4,3 6,89 3,191l-5,187l-713,2c-393,1 -715,-1 -717,-4zm1276,-100c30,-8 39,-16 53,-52c22,-58 21,-69 -14,-102l-31,-29l-167,-6c-183,-7 -202,-12 -259,-72c-31,-32 -32,-36 -40,-153c-4,-67 -7,-366 -6,-665c2,-554 0,-600 -35,-627c-9,-7 -37,-13 -64,-13c-63,0 -84,21 -93,92c-3,29 -8,330 -10,668c-2,338 -6,627 -8,643c-3,15 -5,31 -6,35c0,5 -25,25 -55,46l-54,37l-178,6c-176,5 -177,5 -200,32c-37,40 -40,69 -15,117c21,39 26,42 74,48c29,4 265,6 525,5c260,-1 476,1 479,5c7,7 36,3 104,-15z"/>
   <path fill="#30a8cb" id="svg_8" d="m7262,2927c-7,-7 -44,-79 -83,-158c-38,-79 -74,-151 -79,-159c-10,-17 -180,-351 -363,-710c-376,-741 -403,-793 -429,-829c-21,-27 -23,-58 -6,-63c7,-3 37,0 68,5c30,5 119,7 197,4l143,-4l123,246c68,135 132,262 142,281c10,19 23,44 29,55c114,221 256,512 256,525c0,10 9,29 21,44c17,21 24,24 35,15c8,-6 14,-19 14,-28c0,-9 4,-21 8,-26c5,-6 17,-32 27,-60c10,-27 41,-99 70,-160c29,-60 65,-137 80,-170c15,-33 52,-112 81,-175c30,-63 67,-142 83,-175c15,-33 41,-89 58,-125c54,-113 90,-194 97,-217c9,-28 -2,-26 176,-24c80,1 166,-2 192,-7c25,-5 52,-6 59,-2c8,6 -17,67 -90,216c-57,115 -109,223 -116,239c-7,17 -41,89 -75,160c-34,72 -74,157 -90,190c-15,33 -49,105 -75,160c-26,55 -61,129 -77,165c-17,36 -35,72 -39,80c-5,8 -12,22 -15,30c-3,8 -26,58 -51,110c-24,52 -58,124 -75,160c-16,36 -34,72 -39,80c-5,8 -12,22 -15,30c-3,8 -18,42 -33,75c-16,33 -40,86 -55,117c-14,31 -30,68 -36,82c-7,19 -17,26 -37,26c-16,0 -37,3 -49,6c-11,3 -25,-1 -32,-9zm80,-174c8,-10 32,-54 53,-98c20,-44 44,-91 52,-105c8,-14 22,-43 32,-65c40,-87 146,-309 160,-335c27,-49 41,-79 41,-89c0,-6 36,-85 80,-175c44,-91 80,-169 80,-174c0,-5 16,-36 35,-68c19,-32 35,-62 35,-68c0,-5 9,-28 19,-50c11,-23 25,-52 30,-66c6,-14 15,-32 21,-40c5,-8 30,-60 56,-115c33,-69 47,-114 48,-145l1,-45l-55,-3c-30,-2 -72,1 -92,7c-31,10 -41,21 -68,74c-17,34 -38,73 -45,87c-26,49 -140,293 -274,590c-99,217 -139,282 -202,326c-26,18 -44,24 -59,19c-30,-10 -88,-63 -115,-105c-26,-41 -126,-229 -197,-370c-219,-435 -291,-568 -324,-599c-36,-33 -37,-33 -110,-29c-41,3 -76,7 -79,10c-8,8 16,68 71,184c30,62 54,115 54,120c0,4 6,15 14,23c11,13 125,233 368,716c8,17 24,48 36,70c67,133 122,249 122,261c0,7 6,17 14,21c7,4 23,28 35,53c32,68 86,167 100,184c18,21 44,20 63,-1z"/>
   <path fill="#30a8cb" id="svg_9" d="m4435,730c-14,-22 -25,-43 -25,-47c0,-8 -112,-231 -234,-468c-37,-72 -74,-138 -83,-147c-8,-10 -13,-24 -10,-32c5,-13 16,-14 54,-8c61,9 677,9 718,0c60,-13 59,1 -2,123c-32,63 -84,170 -116,239c-32,69 -78,166 -103,217c-24,50 -44,96 -44,101c0,5 -9,21 -21,36c-17,21 -29,26 -65,26c-40,0 -46,-3 -69,-40zm100,-144c20,-20 135,-244 135,-263c0,-4 6,-14 13,-22c16,-19 53,-113 62,-157c10,-53 0,-55 -251,-54c-125,0 -231,3 -235,6c-20,12 -7,76 27,141c20,37 42,78 48,91c6,13 29,58 51,101c103,200 105,202 150,157z"/>
  </g>
 </g>
</svg>
